<svg xmlns="http://www.w3.org/2000/svg" viewBox="0 0 640 640" role="img" width="640" height="640">
<defs>
<linearGradient id="fundo" x1="0" y1="0" x2="0" y2="1">
<stop offset="0" stop-color="#ffffff"/><stop offset="1" stop-color="#f1f6f5"/>
</linearGradient>
<radialGradient id="sombra" cx="0.5" cy="0.5" r="0.5">
<stop offset="0" stop-color="#0b3f38" stop-opacity=".22"/>
<stop offset="1" stop-color="#0b3f38" stop-opacity="0"/>
</radialGradient>
<linearGradient id="g" x1="0" y1="0" x2="1" y2="0"><stop offset="0" stop-color="#e08a1e"/><stop offset=".45" stop-color="#ffc861"/><stop offset="1" stop-color="#e08a1e"/></linearGradient>
</defs>
<rect width="640" height="640" fill="url(#fundo)"/>
<ellipse cx="320" cy="556" rx="168" ry="26" fill="url(#sombra)"/>

<rect x="286" y="100" width="68" height="34" rx="10" fill="#c06f0c"/>
<path d="M206 146 h228 l-16 344 q-2 28-30 28 H252 q-28 0-30-28 z" fill="url(#g)"/>
<rect x="228" y="166" width="22" height="300" rx="11" fill="#ffffff" opacity=".30"/>
<rect x="214" y="210" width="212" height="190" rx="8" fill="#ffffff" opacity=".93"/><rect x="214" y="210" width="212" height="6" rx="3" fill="#c06f0c"/><rect x="236" y="240" width="110" height="13" rx="6" fill="#c06f0c"/><rect x="236" y="266" width="156" height="9" rx="4" fill="#0b3f38" opacity=".55"/><rect x="236" y="286" width="131" height="5" rx="2.5" fill="#0b3f38" opacity=".26"/><rect x="236" y="298" width="106" height="5" rx="2.5" fill="#0b3f38" opacity=".26"/><rect x="236" y="310" width="80" height="5" rx="2.5" fill="#0b3f38" opacity=".26"/>
<path d="M206 146 h228 v14 H206 z" fill="#0b3f38" opacity=".10"/>

</svg>
