<svg xmlns="http://www.w3.org/2000/svg" viewBox="0 0 640 640" role="img" width="640" height="640">
<defs>
<linearGradient id="fundo" x1="0" y1="0" x2="0" y2="1">
<stop offset="0" stop-color="#ffffff"/><stop offset="1" stop-color="#f1f6f5"/>
</linearGradient>
<radialGradient id="sombra" cx="0.5" cy="0.5" r="0.5">
<stop offset="0" stop-color="#0b3f38" stop-opacity=".22"/>
<stop offset="1" stop-color="#0b3f38" stop-opacity="0"/>
</radialGradient>
<linearGradient id="g" x1="0" y1="0" x2="1" y2="0"><stop offset="0" stop-color="#e08a1e"/><stop offset=".45" stop-color="#ffc861"/><stop offset="1" stop-color="#e08a1e"/></linearGradient>
</defs>
<rect width="640" height="640" fill="url(#fundo)"/>
<ellipse cx="320" cy="556" rx="168" ry="26" fill="url(#sombra)"/>

<rect x="228" y="118" width="184" height="44" rx="12" fill="#c06f0c"/>
<rect x="240" y="130" width="160" height="6" rx="3" fill="#ffffff" opacity=".35"/>
<rect x="246" y="130" width="6" height="22" fill="#0b3f38" opacity=".12"/>
<rect x="270" y="130" width="6" height="22" fill="#0b3f38" opacity=".12"/>
<rect x="294" y="130" width="6" height="22" fill="#0b3f38" opacity=".12"/>
<rect x="318" y="130" width="6" height="22" fill="#0b3f38" opacity=".12"/>
<rect x="342" y="130" width="6" height="22" fill="#0b3f38" opacity=".12"/>
<rect x="366" y="130" width="6" height="22" fill="#0b3f38" opacity=".12"/>
<path d="M214 166 h212 q14 0 14 18 v290 q0 26-26 26 H226 q-26 0-26-26 V184 q0-18 14-18 z" fill="url(#g)"/>
<rect x="226" y="190" width="24" height="254" rx="12" fill="#ffffff" opacity=".30"/>
<rect x="220" y="214" width="200" height="202" rx="8" fill="#ffffff" opacity=".93"/><rect x="220" y="214" width="200" height="6" rx="3" fill="#c06f0c"/><rect x="242" y="244" width="104" height="13" rx="6" fill="#c06f0c"/><rect x="242" y="270" width="148" height="9" rx="4" fill="#0b3f38" opacity=".55"/><rect x="242" y="290" width="124" height="5" rx="2.5" fill="#0b3f38" opacity=".26"/><rect x="242" y="302" width="100" height="5" rx="2.5" fill="#0b3f38" opacity=".26"/><rect x="242" y="314" width="76" height="5" rx="2.5" fill="#0b3f38" opacity=".26"/>

</svg>
